<svg width="40" height="40" viewBox="0 0 40 40" fill="none" xmlns="http://www.w3.org/2000/svg">
<g clip-path="url(#clip0_28_26)">
<mask id="mask0_28_26" style="mask-type:luminance" maskUnits="userSpaceOnUse" x="0" y="0" width="40" height="40">
<path d="M40 0H0V40H40V0Z" fill="white"/>
</mask>
<g mask="url(#mask0_28_26)">
<path d="M0 0H40V40H0V0Z" fill="#34BDB2"/>
<path d="M26.322 13.6003C24.21 12.375 22.3354 11.4114 19.8829 11.4539C18.4798 11.4782 17.2751 12.2409 17.0218 13.6367C16.786 14.9353 17.9404 15.6556 19.1413 16.0978C21.133 16.8312 22.867 17.6056 24.824 18.4211C28.3816 19.9037 30.2058 22.3049 29.9902 25.3855C29.7158 29.3055 27.3568 32.1169 23.6076 33.0437C18.7085 34.2549 13.9512 32.4099 9.93164 29.8343C10.9462 28.2889 12.1232 27.2339 13.1316 25.6977C15.4538 26.6863 17.2782 28.0219 19.7076 28.2301C21.4206 28.3769 23.3614 28.2953 23.7464 26.2833C24.0932 24.4689 22.5142 23.4963 20.974 22.9529C19.1404 22.3063 17.3102 21.5151 15.5121 20.7807C12.1882 19.4231 10.8357 16.7676 11.0634 13.6393C11.0634 11.8051 12.5852 8.0978 16.3166 6.94468C22.0498 5.1728 25.2086 6.98718 29.3658 9.6589C28.2616 11.1192 27.4128 12.1575 26.322 13.6003Z" fill="white"/>
</g>
</g>
<defs>
<clipPath id="clip0_28_26">
<rect width="40" height="40" fill="white"/>
</clipPath>
</defs>
</svg>
